<svg width="108" height="25" viewBox="0 0 108 25" fill="none" xmlns="http://www.w3.org/2000/svg">
<g clip-path="url(#clip0)">
<path fill-rule="evenodd" clip-rule="evenodd" d="M55.9199 6.42178C56.6825 5.38918 57.7139 4.81738 59.0471 4.81738C59.5961 4.81738 60.1271 4.92358 60.6149 5.16838C60.8243 5.25658 60.8837 5.44978 60.8363 5.65978L60.4241 7.58998C60.3935 7.87738 60.1613 7.94818 59.8925 7.87318C58.8917 7.46278 57.3953 7.79158 56.6627 8.52478C56.1311 9.05578 55.9193 9.72598 55.9193 10.4694V18.0318C55.9193 18.2934 55.7609 18.4524 55.4987 18.4524H53.5307C53.2685 18.4524 53.1101 18.294 53.1101 18.0318V5.36698C53.1101 5.10478 53.2691 4.94698 53.5307 4.94698H55.4987C55.7609 4.94698 55.9193 5.10478 55.9193 5.36698L55.9199 6.42178Z" fill="black"/>
<path fill-rule="evenodd" clip-rule="evenodd" d="M42.7959 12.8584C42.8013 13.9738 43.0455 14.9686 44.0319 15.631C44.6517 16.0474 45.3945 16.1866 46.1307 16.1866C47.3427 16.1866 48.2793 15.6994 48.9405 14.6914C49.0713 14.4316 49.2975 14.3692 49.5129 14.5594L51.0009 15.5518C51.1695 15.6964 51.2277 15.8932 51.1107 16.0966C49.9983 17.8858 47.9391 18.685 45.8967 18.685C43.5171 18.685 41.5569 17.656 40.6203 15.4006C40.1331 14.2276 39.9861 12.895 39.9861 11.6344C39.9861 9.38319 40.2483 7.25379 42.2013 5.80719C44.1855 4.33779 47.9451 4.30659 49.7157 6.09519C50.7507 7.14039 51.1869 8.60919 51.3411 10.0378C51.4269 10.8316 51.4353 11.6428 51.4197 12.4372C51.4197 12.6994 51.2613 12.8584 50.9997 12.8584H42.7959ZM42.7995 10.4884H48.6069C48.5403 9.41799 48.3945 8.50359 47.4927 7.78539C46.5573 7.04019 44.9001 7.00539 43.9491 7.73499C43.0785 8.40459 42.8649 9.45159 42.7995 10.4884Z" fill="black"/>
<path fill-rule="evenodd" clip-rule="evenodd" d="M29.7486 17.3982V18.0318C29.7486 18.294 29.5908 18.4524 29.328 18.4524H27.3601C27.0979 18.4524 26.9395 18.294 26.9395 18.0318V0.42C26.9395 0.1578 27.0979 0 27.3601 0H29.328C29.5908 0 29.7486 0.1578 29.7486 0.42V5.976C31.353 4.3362 34.2799 4.3818 36.0313 5.7306C37.8625 7.1418 38.2963 9.4776 38.2963 11.661C38.2963 15.3402 36.8383 18.6594 32.7475 18.6594C31.6015 18.6594 30.5484 18.219 29.7486 17.3982ZM35.4607 11.7132C35.4607 9.7662 34.8853 7.2126 32.4883 7.2126C30.1765 7.2126 29.7745 9.8898 29.7745 11.6862C29.7745 13.5168 30.1512 16.1868 32.514 16.1868C34.9884 16.1868 35.4607 13.7076 35.4607 11.7132Z" fill="black"/>
<path fill-rule="evenodd" clip-rule="evenodd" d="M22.0311 17.3505C20.7226 18.8991 18.196 18.9195 16.4668 18.1275C14.8522 17.3883 14.002 15.9603 14.002 14.1987V5.36727C14.002 5.10507 14.1604 4.94727 14.4226 4.94727H16.3654C16.6276 4.94727 16.786 5.10507 16.786 5.36727V13.4223C16.786 14.1555 16.9485 14.8833 17.4562 15.4371C18.3868 16.4517 20.3518 16.3851 21.301 15.4197C21.8362 14.8755 22.0311 14.1735 22.0311 13.4223V5.36727C22.0311 5.10507 22.1896 4.94727 22.4511 4.94727H24.394C24.6562 4.94727 24.8146 5.10447 24.8146 5.36727V18.0321C24.8146 18.2949 24.6562 18.4527 24.394 18.4527H22.4511C22.1896 18.4527 22.0311 18.2937 22.0311 18.0321V17.3505Z" fill="black"/>
<path fill-rule="evenodd" clip-rule="evenodd" d="M104.94 18.0435C104.94 17.3961 104.94 16.7487 104.94 16.1013C104.94 15.8397 105.1 15.6807 105.361 15.6807H107.307C107.567 15.6807 107.728 15.8403 107.728 16.1013C107.728 16.7487 107.728 17.3961 107.728 18.0435C107.728 18.3051 107.567 18.4635 107.307 18.4635H105.361C105.101 18.4635 104.94 18.3057 104.94 18.0435Z" fill="black"/>
<path fill-rule="evenodd" clip-rule="evenodd" d="M74.7868 18.4269C74.5246 18.4269 74.3662 18.2685 74.3662 18.0063V5.36727C74.3662 5.10507 74.5252 4.94727 74.7868 4.94727H76.7548C77.017 4.94727 77.176 5.10567 77.176 5.36727V18.0063C77.176 18.2679 77.0164 18.4269 76.7548 18.4269H74.7868Z" fill="black"/>
<path fill-rule="evenodd" clip-rule="evenodd" d="M74.3792 3.41103C74.3792 2.76363 74.3792 2.11623 74.3792 1.46823C74.3792 1.20723 74.5388 1.04883 74.7998 1.04883H76.7456C77.006 1.04883 77.1662 1.20783 77.1662 1.46823C77.1662 2.11623 77.1662 2.76363 77.1662 3.41103C77.1662 3.67263 77.006 3.83103 76.7456 3.83103H74.7998C74.5388 3.83103 74.3792 3.67323 74.3792 3.41103Z" fill="black"/>
<path fill-rule="evenodd" clip-rule="evenodd" d="M82.0841 6.04899C83.3927 4.50039 85.9193 4.47999 87.6485 5.27199C89.2631 6.01119 90.1126 7.43919 90.1126 9.20079V18.0322C90.1126 18.295 89.9542 18.4522 89.692 18.4522H87.7499C87.4877 18.4522 87.3287 18.295 87.3287 18.0322V9.97719C87.3287 9.24399 87.1667 8.51619 86.6591 7.96239C85.7285 6.94779 83.7629 7.01439 82.8143 7.97979C82.2785 8.52399 82.0841 9.22599 82.0841 9.97719V18.0322C82.0841 18.295 81.9257 18.4522 81.6635 18.4522H79.7213C79.4585 18.4522 79.3 18.295 79.3 18.0322V5.36739C79.3 5.10459 79.4585 4.94679 79.7213 4.94679H81.6635C81.9257 4.94679 82.0841 5.10579 82.0841 5.36739V6.04899Z" fill="black"/>
<path fill-rule="evenodd" clip-rule="evenodd" d="M94.6135 12.8584C94.6189 13.9738 94.8631 14.9686 95.8495 15.631C96.4693 16.0474 97.2121 16.1866 97.9483 16.1866C99.1603 16.1866 100.097 15.6994 100.758 14.6914C100.888 14.4316 101.115 14.3692 101.331 14.5594L102.819 15.5518C102.987 15.6964 103.045 15.8932 102.928 16.0966C101.815 17.8858 99.7561 18.685 97.7143 18.685C95.3347 18.685 93.3745 17.656 92.4373 15.4006C91.9501 14.2276 91.8037 12.895 91.8037 11.6344C91.8037 9.38319 92.0659 7.25379 94.0189 5.80719C96.0031 4.33779 99.7627 4.30659 101.533 6.09519C102.568 7.14039 103.005 8.60919 103.159 10.0378C103.244 10.8316 103.253 11.6428 103.237 12.4372C103.237 12.6994 103.079 12.8584 102.817 12.8584H94.6135ZM94.6171 10.4884H100.425C100.358 9.41799 100.212 8.50359 99.3103 7.78539C98.3749 7.04019 96.7177 7.00539 95.7667 7.73499C94.8961 8.40459 94.6825 9.45159 94.6171 10.4884Z" fill="black"/>
<path fill-rule="evenodd" clip-rule="evenodd" d="M69.4292 17.2973C68.5946 18.1553 67.4648 18.4523 66.2762 18.4523C63.911 18.4523 61.895 17.1827 61.2002 14.8667C60.9056 13.8845 60.8564 12.6809 60.8564 11.6609C60.8564 10.5893 60.9212 9.32146 61.2536 8.29546C61.9652 6.09646 63.8042 4.73926 66.1208 4.73926C67.3688 4.73926 68.5268 5.06806 69.4292 5.93266V5.36686C69.4292 5.10466 69.5882 4.94686 69.8498 4.94686H71.8184C72.0806 4.94686 72.239 5.10406 72.239 5.36686V17.6171C72.239 19.3415 71.843 21.1325 70.4012 22.2269C69.0146 23.2799 67.2566 23.6063 65.5508 23.6063C65.1188 23.6063 64.6778 23.5793 64.2398 23.5535C63.9854 23.5277 63.8354 23.3645 63.8354 23.1011L63.9128 21.3197C63.9128 21.0743 64.127 20.8751 64.376 20.9273C64.7228 20.9525 65.0744 20.9525 65.4218 20.9525C66.4094 20.9525 67.7108 20.8307 68.504 20.1731C69.2606 19.5461 69.4292 18.4667 69.4292 17.5397V17.2973ZM69.3914 13.1753C69.4328 12.6731 69.4292 12.1391 69.4292 11.6345C69.4292 11.1353 69.4334 10.6043 69.3914 10.1075C69.2552 8.48806 68.4752 7.21246 66.6644 7.21246C65.3132 7.21246 64.3742 8.02426 63.968 9.28186C63.7214 9.95026 63.692 10.9283 63.692 11.6345C63.692 12.2705 63.7022 13.4141 63.9458 14.0267C64.1078 14.6267 64.4276 15.1229 64.913 15.5093C65.4212 15.9137 66.0176 16.0835 66.6644 16.0835C68.519 16.0835 69.251 14.8901 69.3914 13.1753Z" fill="black"/>
<path fill-rule="evenodd" clip-rule="evenodd" d="M8.66269 18.468H4.51069C1.85569 18.468 0.000488281 16.503 0.000488281 14.022C0.000488281 11.5824 1.99969 9.63056 4.42969 9.63296C5.20609 9.63356 5.98309 9.63836 6.75949 9.64016C7.01989 9.64076 7.18009 9.79916 7.18009 10.0602C7.18009 10.7076 7.18009 11.3556 7.18009 12.0036C7.18009 12.2628 7.01809 12.4236 6.75889 12.4236C5.98249 12.4236 5.20549 12.4218 4.42909 12.4212C2.22949 12.4194 2.28409 15.6816 4.38829 15.6816L8.70709 15.6798C8.95609 15.6972 9.08089 15.8592 9.08629 16.098C9.08629 16.7508 9.08629 17.4036 9.08629 18.0558C9.07969 18.3108 8.91949 18.468 8.66269 18.468ZM7.33429 4.94336C9.84109 4.94336 11.8739 6.97616 11.8739 9.48356C11.8739 8.61896 11.8739 14.2416 11.8739 15.2586C11.8739 15.5202 11.7125 15.6786 11.4527 15.6786H9.50749C9.24769 15.6786 9.08749 15.522 9.08629 15.261C9.08629 13.3422 9.08869 11.4228 9.08869 9.50396C9.08869 8.48756 8.29009 7.73696 7.29649 7.73696C5.89069 7.73216 4.63489 7.72736 3.21529 7.72736C2.95369 7.72736 2.79469 7.57016 2.79469 7.30736C2.79469 6.65996 2.79469 6.01136 2.79469 5.36336C2.79469 5.10176 2.95369 4.94336 3.21529 4.94336H7.33429Z" fill="black"/>
</g>
<defs>
<clipPath id="clip0">
<rect width="108" height="24" fill="white"/>
</clipPath>
</defs>
</svg>
