<svg xmlns="http://www.w3.org/2000/svg" viewBox="0 0 501 174"><title>lawpay_logo</title><path d="M80.1,82.2c-.9,4.5-3.9,18.2-5.2,22.7H9.4v-4.1C21.5,100,22.7,99,22.7,86.7V28.8c0-12.3-.9-13-12.8-13.9V10.8H47.7v4.1C36.3,15.8,35,16.3,35,28.8V86c0,7.8.7,10.7,3.3,12.2,2.9,1.6,7.8,1.9,13.9,1.9,8,0,12.9-.7,16.2-4.5,2.6-2.9,5.2-7.5,7.4-14.2Z" style="fill:#0b3a70"/><path d="M133.3,104.9V101l2.8-.3c4.3-.6,5.2-1.7,3.2-7l-4-10.9H111.6a75,75,0,0,0-3.3,10.1c-1.7,5.8-.3,6.9,3.9,7.5l3.5.4v3.9H89.3V101c6.7-.7,9.4-1.7,13.7-12.3l21.3-51.8,4.4-1.2,22.4,55.5c3.3,8.5,5.9,9.4,12.6,9.8v3.9ZM123.5,52h-.3l-9.6,25.3h19.3Z" style="fill:#0b3a70"/><path d="M262.3,41.7c-7.8,1-8.8,2.2-11.7,9.6s-9.7,27.5-18.4,55.2H228L209.6,59h-.3l-17.8,47.3h-3.9L170.2,52c-2.7-8.7-4.5-9.6-11.3-10.4V37.7h29.3v3.9l-3.2.6c-4.6,1-5.4,1.4-3.8,6.7l12.2,38.8h.3l17.1-48.2h3.8l18.5,47.8h.3c3.8-11,9.3-28.5,11.4-37.9,1.3-5.2.6-6.2-4.5-7.1l-3.6-.6V37.8h25.6v3.9Z" style="fill:#0b3a70"/><path d="M307.9,10.8c10.3,0,18.7,1.7,24.5,5.9,5.6,4.3,9.3,11,9.3,20.4,0,18.8-14,27.9-28.2,29.7a28.66,28.66,0,0,1-6.5.1l-10.7-2.7V87c0,12.3,1.3,13,14.3,13.9V105H271.4v-4.1c11.6-.9,12.8-2,12.8-14v-58c0-12.7-1.2-13.3-11.9-14V10.8ZM296.2,59.5a32.39,32.39,0,0,0,10.6,1.7c9.4,0,21-5.1,21-23.5,0-15.6-10-22.3-21.9-22.3-4.1,0-7.1.7-8.1,1.7-1.2.9-1.6,2.6-1.6,6.8Z" style="fill:#0b3a70"/><path d="M380.6,104.9V101l2.8-.3c4.3-.6,5.2-1.7,3.2-7l-4.1-10.9H358.8a75,75,0,0,0-3.3,10.1c-1.7,5.8-.3,6.9,3.9,7.5l3.5.4v3.9H336.7V101c6.7-.7,9.4-1.7,13.8-12.3l21.3-51.8,4.3-1.2,22.4,55.5c3.3,8.5,5.9,9.4,12.6,9.8v3.9ZM370.8,52h-.3l-9.6,25.3h19.3Z" style="fill:#0b3a70"/><path d="M475.7,41.7c-7.8.9-9.4,2.3-13.3,8a219.46,219.46,0,0,0-12.7,21.6c-1.6,3-1.9,4.2-1.9,6.4v12c0,9.7.9,10.6,11.6,11.4V105H424.8v-4c10.4-.9,11.1-1.7,11.1-11.4V79c0-3-.3-3.9-2.2-7.1-3.2-5.9-6.8-12-13.2-22.4-3.9-6.2-5.4-7.1-12-7.8V37.8h29.7v3.9l-4.4.7c-3.2.6-3.5,1.9-1.9,4.6,3.3,6.2,9.4,16.8,13,22.7,4.6-8,9.6-17.1,11.7-22,1.7-3.9,1-4.9-3.3-5.6l-3.5-.4V37.8h25.8v3.9Z" style="fill:#0b3a70"/><rect x="9.3" y="122.9" width="466.5" height="4.5" style="fill:#0b3a70"/><path d="M30.4,166.1v-.9c2-.3,2.3-.6,1.9-1.9s-1-2.9-1.7-4.8H23.8c-.5,1.4-.9,2.7-1.4,4.1-.6,2-.4,2.3,2,2.6v.9H17.3v-.9c2.1-.3,2.5-.5,3.7-3.4l6.7-17,1.1-.3c2,5.6,4.2,11.7,6.3,17.3,1,2.8,1.5,3.1,3.6,3.3v.9H30.4ZM27.3,149h0c-1.1,2.7-2.1,5.4-3.1,8.1H30Z" style="fill:#0b3a70"/><path d="M65.9,145.9c-1.8.1-2.6.5-2.7,1.9a54.21,54.21,0,0,0-.2,5.5v13.1H61.9L48.1,149.5H48v8a54.21,54.21,0,0,0,.2,5.5c.2,1.6.9,2,3.1,2.2v.9H43.6v-.9c1.9-.1,2.7-.6,2.8-2.1.1-1,.2-2.6.2-5.5v-7.1c0-2.3-.1-2.5-.7-3.3A3.45,3.45,0,0,0,43,146v-1h5l13.4,15.9h.1v-7.6a50.2,50.2,0,0,0-.2-5.4c-.2-1.4-.9-1.9-3.2-2V145h7.7v.9Z" style="fill:#0b3a70"/><path d="M94.2,166.1v-.9c2-.3,2.3-.6,1.9-1.9s-1-2.9-1.7-4.8H87.6c-.5,1.4-.9,2.7-1.4,4.1-.6,2-.4,2.3,2,2.6v.9H81v-.9c2.1-.3,2.5-.5,3.7-3.4l6.7-17,1.1-.3c2,5.6,4.2,11.7,6.3,17.3,1,2.8,1.5,3.1,3.6,3.3v.9H94.2ZM91.1,149h0c-1.1,2.7-2.1,5.4-3.1,8.1h5.8Z" style="fill:#0b3a70"/><path d="M121.4,149.9a6.4,6.4,0,0,0-1-2.6c-.6-.9-1.3-1.1-3.6-1.1h-2.3c-1,0-1.1.1-1.1,1.1v7.6h3.2c2.9,0,3.1-.3,3.5-2.4h1v6.3h-1c-.4-2.2-.6-2.6-3.5-2.6h-3.2V162c0,2.9.3,3,3.2,3.2v.9h-9.1v-.9c2.5-.2,2.8-.4,2.8-3.2V149.2c0-2.8-.3-3-2.8-3.2v-1H122c0,1.1.2,3.2.3,4.8Z" style="fill:#0b3a70"/><path d="M142,149.9a6.4,6.4,0,0,0-1-2.6c-.6-.9-1.3-1.1-3.6-1.1H135c-1,0-1.1.1-1.1,1.1v7.6h3.2c2.9,0,3.1-.3,3.5-2.4h1v6.3h-1c-.4-2.2-.6-2.6-3.5-2.6h-3.2V162c0,2.9.3,3,3.2,3.2v.9H128v-.9c2.5-.2,2.8-.4,2.8-3.2V149.2c0-2.8-.3-3-2.8-3.2v-1h14.5c0,1.1.2,3.2.3,4.8Z" style="fill:#0b3a70"/><path d="M148.6,166.1v-.9c2.6-.2,2.9-.4,2.9-3.2V149.1c0-2.8-.3-3-2.9-3.2V145h8.8v.9c-2.6.2-2.9.4-2.9,3.2V162c0,2.8.3,3,2.9,3.2v.9Z" style="fill:#0b3a70"/><path d="M185.2,145.9c-1.8.1-2.6.5-2.7,1.9a54.21,54.21,0,0,0-.2,5.5v13.1h-1.1l-13.8-16.9h-.1v8a54.21,54.21,0,0,0,.2,5.5c.2,1.6.9,2,3.1,2.2v.9H163v-.9c1.9-.1,2.7-.6,2.8-2.1.1-1,.2-2.6.2-5.5v-7.1c0-2.3-.1-2.5-.7-3.3a3.45,3.45,0,0,0-2.9-1.2v-1h5l13.4,15.9h.1v-7.6a50.2,50.2,0,0,0-.2-5.4c-.2-1.4-.9-1.9-3.2-2V145h7.7v.9Z" style="fill:#0b3a70"/><path d="M190.5,166.1v-.9c2.6-.2,2.9-.4,2.9-3.2V149.1c0-2.8-.3-3-2.9-3.2V145h8.8v.9c-2.6.2-2.9.4-2.9,3.2V162c0,2.8.3,3,2.9,3.2v.9Z" style="fill:#0b3a70"/><path d="M213.4,145a9.74,9.74,0,0,1,5.5,1.3,5.48,5.48,0,0,1,2.1,4.6c0,4.3-3.2,6.3-6.4,6.7a3.27,3.27,0,0,1-1.4,0l-2.4-.6v5c0,2.7.3,2.9,3.2,3.1v.9h-9v-.9c2.6-.2,2.9-.5,2.9-3.2V149c0-2.9-.3-3-2.7-3.2V145Zm-2.5,10.9a5.74,5.74,0,0,0,2.2.4c1.9,0,4.5-1.1,4.5-5.2,0-3.5-2.2-5-4.7-5a3,3,0,0,0-1.7.4c-.2.2-.3.6-.3,1.4Z" style="fill:#0b3a70"/><path d="M236.3,166.1v-.9c2-.3,2.3-.6,1.9-1.9s-1-2.9-1.7-4.8h-6.8c-.5,1.4-.9,2.7-1.4,4.1-.6,2-.4,2.3,2,2.6v.9h-7.1v-.9c2.1-.3,2.5-.5,3.7-3.4l6.7-17,1.1-.3c2,5.6,4.2,11.7,6.3,17.3,1,2.8,1.5,3.1,3.6,3.3v.9h-8.3ZM233.2,149h0c-1.1,2.7-2.1,5.4-3.1,8.1h5.8Z" style="fill:#0b3a70"/><path d="M266.1,145.9c-2.2.3-2.6.6-3.9,2.6-1.4,2.3-2.5,4.1-4.1,7a3.84,3.84,0,0,0-.5,2.1V162c0,2.8.3,3,3.2,3.2v.9h-9.4v-.9c2.9-.2,3.2-.4,3.2-3.2v-4.2a3.21,3.21,0,0,0-.6-1.9c-1.1-1.9-2.3-4.1-4.1-7.2-1.3-2.2-1.7-2.6-3.6-2.8V145h8.1v.9c-2.3.3-2.2.7-1.6,1.8,1.3,2.5,2.9,5.2,4.3,7.6,1.1-2.1,2.9-5.3,3.8-7.2.7-1.6.6-1.9-1.9-2.1v-1h7.2v.9Z" style="fill:#0b3a70"/><path d="M292.8,150c-.6-2-1.5-4.4-4.3-4.4a3.3,3.3,0,0,0-3.5,3.5c0,2.3,1.5,3.4,4.1,4.7s5.6,2.9,5.6,6.5-2.9,6.2-7.3,6.2a9.33,9.33,0,0,1-3.2-.5,18.32,18.32,0,0,1-1.7-.7,34.57,34.57,0,0,1-.9-5.1l1-.3c.5,2,2,5.4,5.4,5.4a3.52,3.52,0,0,0,3.8-3.8c0-2.3-1.7-3.5-4.2-4.8-2.3-1.2-5.4-2.9-5.4-6.4,0-3.2,2.6-5.9,6.8-5.9a12.55,12.55,0,0,1,4.2.8c.1,1.2.3,2.5.6,4.5Z" style="fill:#0b3a70"/><path d="M322.1,155.3c0,7-4.9,11.3-10.9,11.3a10.57,10.57,0,0,1-10.7-10.9c0-5.8,4.1-11.2,11-11.2a10.46,10.46,0,0,1,10.6,10.8m-17.9-.4c0,6,3.2,10.5,7.7,10.5,3.5,0,6.6-3,6.6-9.2,0-6.8-3.4-10.5-7.6-10.5-3.5,0-6.7,3.2-6.7,9.2" style="fill:#0b3a70"/><path d="M343.6,160.9c-.2,1.1-.9,4.2-1.2,5.2H327.5v-.9c2.7-.2,3-.4,3-3.2V149.1c0-2.8-.2-2.9-2.9-3.2V145h8.7v.9c-2.5.2-2.9.4-2.9,3.2v12.8c0,1.7.2,2.3.8,2.7a6.18,6.18,0,0,0,3,.4c1.7,0,2.8-.2,3.6-1a8.47,8.47,0,0,0,1.7-3.2Z" style="fill:#0b3a70"/><path d="M369.3,145.9c-1.9.2-2.7.6-2.8,1.9a46,46,0,0,0-.2,5.1v2.9c0,3.7-.6,6.5-2.4,8.5a7.92,7.92,0,0,1-5.8,2.3,9,9,0,0,1-5.3-1.6c-1.9-1.5-2.8-3.9-2.8-7.7v-8c0-3-.3-3.1-2.8-3.3v-1h8.6v.9c-2.5.2-2.8.4-2.8,3.3v7.3c0,5.2,2,8.2,5.9,8.2,4.5,0,6-3.7,6-9.1V153a48.34,48.34,0,0,0-.2-5.2c-.2-1.2-.9-1.7-3.2-1.9V145h7.8v.9Z" style="fill:#0b3a70"/><path d="M391.7,150.1a9.48,9.48,0,0,0-1.1-3c-.6-.7-1.1-1-3.5-1H385V162c0,2.6.3,2.9,3.3,3.1v.9h-9.6v-.9c2.9-.2,3.2-.5,3.2-3.1V146.1H380c-2.7,0-3.3.3-3.8,1a10.62,10.62,0,0,0-1.1,3h-1c.1-2,.3-4.2.4-5.9h.7a1.76,1.76,0,0,0,1.8.8h13a1.78,1.78,0,0,0,1.7-.8h.7c0,1.5.2,3.9.3,5.8Z" style="fill:#0b3a70"/><path d="M398,166.1v-.9c2.6-.2,2.9-.4,2.9-3.2V149.1c0-2.8-.3-3-2.9-3.2V145h8.8v.9c-2.6.2-2.9.4-2.9,3.2V162c0,2.8.3,3,2.9,3.2v.9Z" style="fill:#0b3a70"/><path d="M433.9,155.3c0,7-4.9,11.3-10.9,11.3a10.57,10.57,0,0,1-10.7-10.9c0-5.8,4.1-11.2,11-11.2a10.52,10.52,0,0,1,10.6,10.8m-18-.4c0,6,3.2,10.5,7.7,10.5,3.5,0,6.6-3,6.6-9.2,0-6.8-3.4-10.5-7.6-10.5-3.5,0-6.7,3.2-6.7,9.2" style="fill:#0b3a70"/><path d="M461.6,145.9c-1.8.1-2.6.5-2.7,1.9a54.21,54.21,0,0,0-.2,5.5v13.1h-1.1l-13.8-16.9h-.1v8a54.21,54.21,0,0,0,.2,5.5c.2,1.6.9,2,3.1,2.2v.9h-7.7v-.9c1.9-.1,2.7-.6,2.8-2.1.1-1,.2-2.6.2-5.5v-7.1c0-2.3-.1-2.5-.7-3.3s-1.3-1.1-2.9-1.2v-1h5l13.4,15.9h.1v-7.6a50.2,50.2,0,0,0-.2-5.4c-.2-1.4-.9-1.9-3.2-2V145h7.7v.9Z" style="fill:#0b3a70"/><path d="M484.8,19.7a5.28,5.28,0,0,1-1.6,3.9,5.07,5.07,0,0,1-3.8,1.6,5.46,5.46,0,0,1-5.5-5.5,5.93,5.93,0,0,1,.5-2.3,4.54,4.54,0,0,1,1.5-1.9,5.33,5.33,0,0,1,3.4-1.3,5.93,5.93,0,0,1,2.3.5,5,5,0,0,1,2.3,2A5.53,5.53,0,0,1,484.8,19.7Zm-5.5-4.6a4.61,4.61,0,0,0-4.5,4.7,4.5,4.5,0,1,0,9,0,5.37,5.37,0,0,0-.5-2.1,3.64,3.64,0,0,0-1.4-1.6A3.19,3.19,0,0,0,479.3,15.1Zm.6,5.1,2,2.6h-1.5l-1.9-2.5v2.5h-1.2V16.5h1.3a3.09,3.09,0,0,1,1.9.5,1.91,1.91,0,0,1,.7,1.4,1.5,1.5,0,0,1-.4,1.1,1.27,1.27,0,0,1-.9.7Zm-1.3-.8h.2c.9,0,1.3-.3,1.3-.9s-.4-.8-1.3-.8h-.2Z" style="fill:#0b3a70"/></svg>